<svg width="103" height="71" viewBox="0 0 103 71" fill="none" xmlns="http://www.w3.org/2000/svg">
<circle cx="51" cy="34" r="2" fill="white"/>
<path d="M4.15452 66.203C3.26785 66.203 2.53752 66.0117 1.96352 65.629C1.39418 65.2463 1.04418 64.7143 0.913516 64.033L1.96352 63.858C2.07552 64.2873 2.32985 64.6303 2.72652 64.887C3.12785 65.139 3.62252 65.265 4.21052 65.265C4.78452 65.265 5.23718 65.146 5.56852 64.908C5.89985 64.6653 6.06552 64.3363 6.06552 63.921C6.06552 63.6877 6.01185 63.4987 5.90452 63.354C5.80185 63.2047 5.58952 63.067 5.26752 62.941C4.94552 62.815 4.46485 62.6657 3.82552 62.493C3.13952 62.3063 2.60285 62.1197 2.21552 61.933C1.82818 61.7463 1.55285 61.5317 1.38952 61.289C1.22618 61.0417 1.14452 60.7407 1.14452 60.386C1.14452 59.9567 1.26585 59.581 1.50852 59.259C1.75118 58.9323 2.08718 58.6803 2.51652 58.503C2.94585 58.321 3.44518 58.23 4.01452 58.23C4.58385 58.23 5.09252 58.3233 5.54052 58.51C5.99318 58.692 6.35718 58.9487 6.63252 59.28C6.90785 59.6113 7.07118 59.9963 7.12252 60.435L6.07252 60.624C6.00252 60.1807 5.78085 59.8307 5.40752 59.574C5.03885 59.3127 4.56985 59.1773 4.00052 59.168C3.46385 59.154 3.02752 59.2567 2.69152 59.476C2.35552 59.6907 2.18752 59.9777 2.18752 60.337C2.18752 60.5377 2.24818 60.7103 2.36952 60.855C2.49085 60.995 2.71018 61.128 3.02752 61.254C3.34952 61.38 3.80685 61.5177 4.39952 61.667C5.09485 61.8443 5.64085 62.031 6.03752 62.227C6.43418 62.423 6.71652 62.654 6.88452 62.92C7.05252 63.186 7.13652 63.515 7.13652 63.907C7.13652 64.621 6.87052 65.1833 6.33852 65.594C5.81118 66 5.08318 66.203 4.15452 66.203ZM11.825 66.21C11.0643 66.21 10.4203 66.0397 9.89298 65.699C9.36565 65.3583 8.96432 64.8893 8.68898 64.292C8.41832 63.69 8.27832 62.9993 8.26898 62.22C8.27832 61.4267 8.42298 60.7313 8.70298 60.134C8.98298 59.532 9.38665 59.0653 9.91398 58.734C10.4413 58.398 11.0807 58.23 11.832 58.23C12.5973 58.23 13.2623 58.4167 13.827 58.79C14.3963 59.1633 14.786 59.6743 14.996 60.323L13.988 60.645C13.8107 60.1923 13.5283 59.8423 13.141 59.595C12.7583 59.343 12.3197 59.217 11.825 59.217C11.2697 59.217 10.81 59.3453 10.446 59.602C10.082 59.854 9.81132 60.2063 9.63398 60.659C9.45665 61.1117 9.36565 61.632 9.36098 62.22C9.37032 63.1253 9.58032 63.8533 9.99098 64.404C10.4017 64.95 11.013 65.223 11.825 65.223C12.3383 65.223 12.7747 65.1063 13.134 64.873C13.498 64.635 13.7733 64.2897 13.96 63.837L14.996 64.145C14.716 64.817 14.3053 65.3303 13.764 65.685C13.2227 66.035 12.5763 66.21 11.825 66.21ZM16.4409 66V58.44H17.3649V60.26L17.1829 60.022C17.2669 59.798 17.3766 59.5927 17.5119 59.406C17.6473 59.2147 17.7943 59.0583 17.9529 58.937C18.1489 58.7643 18.3776 58.6337 18.6389 58.545C18.9003 58.4517 19.1639 58.398 19.4299 58.384C19.6959 58.3653 19.9386 58.384 20.1579 58.44V59.406C19.8826 59.336 19.5816 59.3197 19.2549 59.357C18.9283 59.3943 18.6273 59.525 18.3519 59.749C18.0999 59.945 17.9109 60.1807 17.7849 60.456C17.6589 60.7267 17.5749 61.016 17.5329 61.324C17.4909 61.6273 17.4699 61.9283 17.4699 62.227V66H16.4409ZM24.5061 66.21C23.7548 66.21 23.1131 66.0397 22.5811 65.699C22.0491 65.3583 21.6408 64.887 21.3561 64.285C21.0715 63.683 20.9291 62.9923 20.9291 62.213C20.9291 61.4197 21.0738 60.7243 21.3631 60.127C21.6525 59.5297 22.0631 59.0653 22.5951 58.734C23.1318 58.398 23.7688 58.23 24.5061 58.23C25.2621 58.23 25.9061 58.4003 26.4381 58.741C26.9748 59.077 27.3831 59.546 27.6631 60.148C27.9478 60.7453 28.0901 61.4337 28.0901 62.213C28.0901 63.0063 27.9478 63.704 27.6631 64.306C27.3785 64.9033 26.9678 65.37 26.4311 65.706C25.8945 66.042 25.2528 66.21 24.5061 66.21ZM24.5061 65.223C25.3461 65.223 25.9715 64.9453 26.3821 64.39C26.7928 63.83 26.9981 63.1043 26.9981 62.213C26.9981 61.2983 26.7905 60.5703 26.3751 60.029C25.9645 59.4877 25.3415 59.217 24.5061 59.217C23.9415 59.217 23.4748 59.3453 23.1061 59.602C22.7421 59.854 22.4691 60.2063 22.2871 60.659C22.1098 61.107 22.0211 61.625 22.0211 62.213C22.0211 63.123 22.2311 63.8533 22.6511 64.404C23.0711 64.95 23.6895 65.223 24.5061 65.223ZM29.7743 66V55.71H30.8033V66H29.7743ZM33.0419 66V55.71H34.0709V66H33.0419ZM43.0882 66C42.6635 66.0887 42.2435 66.1237 41.8282 66.105C41.4175 66.0863 41.0489 65.9977 40.7222 65.839C40.4002 65.6803 40.1552 65.433 39.9872 65.097C39.8519 64.817 39.7772 64.5347 39.7632 64.25C39.7539 63.9607 39.7492 63.6317 39.7492 63.263V56.34H40.7712V63.221C40.7712 63.5383 40.7735 63.8043 40.7782 64.019C40.7875 64.229 40.8365 64.4157 40.9252 64.579C41.0932 64.8917 41.3592 65.0783 41.7232 65.139C42.0919 65.1997 42.5469 65.1857 43.0882 65.097V66ZM38.1322 59.322V58.44H43.0882V59.322H38.1322ZM47.4612 66.21C46.7099 66.21 46.0682 66.0397 45.5362 65.699C45.0042 65.3583 44.5959 64.887 44.3112 64.285C44.0266 63.683 43.8842 62.9923 43.8842 62.213C43.8842 61.4197 44.0289 60.7243 44.3182 60.127C44.6076 59.5297 45.0182 59.0653 45.5502 58.734C46.0869 58.398 46.7239 58.23 47.4612 58.23C48.2172 58.23 48.8612 58.4003 49.3932 58.741C49.9299 59.077 50.3382 59.546 50.6182 60.148C50.9029 60.7453 51.0452 61.4337 51.0452 62.213C51.0452 63.0063 50.9029 63.704 50.6182 64.306C50.3336 64.9033 49.9229 65.37 49.3862 65.706C48.8496 66.042 48.2079 66.21 47.4612 66.21ZM47.4612 65.223C48.3012 65.223 48.9266 64.9453 49.3372 64.39C49.7479 63.83 49.9532 63.1043 49.9532 62.213C49.9532 61.2983 49.7456 60.5703 49.3302 60.029C48.9196 59.4877 48.2966 59.217 47.4612 59.217C46.8966 59.217 46.4299 59.3453 46.0612 59.602C45.6972 59.854 45.4242 60.2063 45.2422 60.659C45.0649 61.107 44.9762 61.625 44.9762 62.213C44.9762 63.123 45.1862 63.8533 45.6062 64.404C46.0262 64.95 46.6446 65.223 47.4612 65.223ZM58.5911 66.21C57.8538 66.21 57.2144 66.0467 56.6731 65.72C56.1364 65.3933 55.7188 64.9337 55.4201 64.341C55.1214 63.7483 54.9721 63.053 54.9721 62.255C54.9721 61.429 55.1191 60.715 55.4131 60.113C55.7071 59.511 56.1201 59.0467 56.6521 58.72C57.1888 58.3933 57.8211 58.23 58.5491 58.23C59.2958 58.23 59.9328 58.4027 60.4601 58.748C60.9874 59.0887 61.3864 59.5787 61.6571 60.218C61.9278 60.8573 62.0514 61.6203 62.0281 62.507H60.9781V62.143C60.9594 61.163 60.7471 60.4233 60.3411 59.924C59.9398 59.4247 59.3518 59.175 58.5771 59.175C57.7651 59.175 57.1421 59.4387 56.7081 59.966C56.2788 60.4933 56.0641 61.2447 56.0641 62.22C56.0641 63.172 56.2788 63.9117 56.7081 64.439C57.1421 64.9617 57.7558 65.223 58.5491 65.223C59.0904 65.223 59.5618 65.0993 59.9631 64.852C60.3691 64.6 60.6888 64.2383 60.9221 63.767L61.8811 64.138C61.5824 64.796 61.1414 65.307 60.5581 65.671C59.9794 66.0303 59.3238 66.21 58.5911 66.21ZM55.7001 62.507V61.646H61.4751V62.507H55.7001ZM62.4681 66L65.4221 62.178L62.5311 58.44H63.7631L66.0241 61.387L68.2641 58.44H69.4961L66.6051 62.178L69.5661 66H68.3271L66.0241 62.969L63.7071 66H62.4681ZM74.0859 66.21C73.3906 66.21 72.8026 66.035 72.3219 65.685C71.8413 65.3303 71.4773 64.852 71.2299 64.25C70.9826 63.6433 70.8589 62.9643 70.8589 62.213C70.8589 61.4477 70.9826 60.7663 71.2299 60.169C71.4819 59.567 71.8506 59.0933 72.3359 58.748C72.8213 58.4027 73.4186 58.23 74.1279 58.23C74.8186 58.23 75.4113 58.405 75.9059 58.755C76.4006 59.105 76.7786 59.581 77.0399 60.183C77.3059 60.785 77.4389 61.4617 77.4389 62.213C77.4389 62.969 77.3059 63.648 77.0399 64.25C76.7739 64.852 76.3913 65.3303 75.8919 65.685C75.3926 66.035 74.7906 66.21 74.0859 66.21ZM70.6839 69.36V58.44H71.6079V64.131H71.7199V69.36H70.6839ZM73.9809 65.251C74.5083 65.251 74.9469 65.118 75.2969 64.852C75.6469 64.586 75.9083 64.2243 76.0809 63.767C76.2583 63.305 76.3469 62.787 76.3469 62.213C76.3469 61.6437 76.2606 61.1303 76.0879 60.673C75.9153 60.2157 75.6516 59.854 75.2969 59.588C74.9469 59.322 74.5013 59.189 73.9599 59.189C73.4326 59.189 72.9939 59.3173 72.6439 59.574C72.2986 59.8307 72.0396 60.1877 71.8669 60.645C71.6943 61.0977 71.6079 61.6203 71.6079 62.213C71.6079 62.7963 71.6943 63.319 71.8669 63.781C72.0396 64.2383 72.3009 64.5977 72.6509 64.859C73.0009 65.1203 73.4443 65.251 73.9809 65.251ZM79.1161 66V55.71H80.1451V66H79.1161ZM85.4007 66.21C84.6493 66.21 84.0077 66.0397 83.4757 65.699C82.9437 65.3583 82.5353 64.887 82.2507 64.285C81.966 63.683 81.8237 62.9923 81.8237 62.213C81.8237 61.4197 81.9683 60.7243 82.2577 60.127C82.547 59.5297 82.9577 59.0653 83.4897 58.734C84.0263 58.398 84.6633 58.23 85.4007 58.23C86.1567 58.23 86.8007 58.4003 87.3327 58.741C87.8693 59.077 88.2777 59.546 88.5577 60.148C88.8423 60.7453 88.9847 61.4337 88.9847 62.213C88.9847 63.0063 88.8423 63.704 88.5577 64.306C88.273 64.9033 87.8623 65.37 87.3257 65.706C86.789 66.042 86.1473 66.21 85.4007 66.21ZM85.4007 65.223C86.2407 65.223 86.866 64.9453 87.2767 64.39C87.6873 63.83 87.8927 63.1043 87.8927 62.213C87.8927 61.2983 87.685 60.5703 87.2697 60.029C86.859 59.4877 86.236 59.217 85.4007 59.217C84.836 59.217 84.3693 59.3453 84.0007 59.602C83.6367 59.854 83.3637 60.2063 83.1817 60.659C83.0043 61.107 82.9157 61.625 82.9157 62.213C82.9157 63.123 83.1257 63.8533 83.5457 64.404C83.9657 64.95 84.584 65.223 85.4007 65.223ZM90.5288 66V58.44H91.4528V60.26L91.2708 60.022C91.3548 59.798 91.4645 59.5927 91.5998 59.406C91.7352 59.2147 91.8822 59.0583 92.0408 58.937C92.2368 58.7643 92.4655 58.6337 92.7268 58.545C92.9882 58.4517 93.2518 58.398 93.5178 58.384C93.7838 58.3653 94.0265 58.384 94.2458 58.44V59.406C93.9705 59.336 93.6695 59.3197 93.3428 59.357C93.0162 59.3943 92.7152 59.525 92.4398 59.749C92.1878 59.945 91.9988 60.1807 91.8728 60.456C91.7468 60.7267 91.6628 61.016 91.6208 61.324C91.5788 61.6273 91.5578 61.9283 91.5578 62.227V66H90.5288ZM98.636 66.21C97.8987 66.21 97.2594 66.0467 96.718 65.72C96.1814 65.3933 95.7637 64.9337 95.465 64.341C95.1664 63.7483 95.017 63.053 95.017 62.255C95.017 61.429 95.164 60.715 95.458 60.113C95.752 59.511 96.165 59.0467 96.697 58.72C97.2337 58.3933 97.866 58.23 98.594 58.23C99.3407 58.23 99.9777 58.4027 100.505 58.748C101.032 59.0887 101.431 59.5787 101.702 60.218C101.973 60.8573 102.096 61.6203 102.073 62.507H101.023V62.143C101.004 61.163 100.792 60.4233 100.386 59.924C99.9847 59.4247 99.3967 59.175 98.622 59.175C97.81 59.175 97.187 59.4387 96.753 59.966C96.3237 60.4933 96.109 61.2447 96.109 62.22C96.109 63.172 96.3237 63.9117 96.753 64.439C97.187 64.9617 97.8007 65.223 98.594 65.223C99.1354 65.223 99.6067 65.0993 100.008 64.852C100.414 64.6 100.734 64.2383 100.967 63.767L101.926 64.138C101.627 64.796 101.186 65.307 100.603 65.671C100.024 66.0303 99.3687 66.21 98.636 66.21ZM95.745 62.507V61.646H101.52V62.507H95.745Z" fill="white"/>
<line x1="51" y1="27.5" x2="51" y2="0.5" stroke="white" stroke-linecap="round"/>
</svg>
